#!OML:ASF I:\golf\golf\golf 2\Subject 1\2002-09-07\Subject1.ASF
:FULLY-SPECIFIED
:DEGREES
282
root -7.28844 17.7077 5.43932 1.64092 30.3364 -7.4643
lowerback 2.37399 -10.2574 -18.8329
upperback -1.74198 -14.1431 -5.25301
thorax -0.13941 -6.76025 4.44818
lowerneck -4.44399 23.1232 1.10174
upperneck 10.1982 32.999 -13.393
head 6.30187 15.2398 -1.49092
rclavicle -3.26007e-014 -3.49861e-014
rhumerus 30.3404 -27.0457 -56.1048
rradius 108.757
rwrist 4.02987
rhand -64.7936 27.988
rfingers 7.12502
rthumb -36.7024 1.84714
lclavicle -3.26007e-014 -3.49861e-014
lhumerus 114.894 -40.2793 43.4348
lradius 39.6378
lwrist 4.10356
lhand -21.7001 -1.69859
lfingers 7.12502
lthumb -175.302 208.229
rfemur -27.0052 18.2266 26.7522
rtibia 34.2796
rfoot 2.06371 32.4616
rtoes 41.6127
lfemur 1.90396 17.2994 8.58087
ltibia 39.0858
lfoot 20.1708 11.2239
ltoes -27.4919
283
root -7.28989 17.7095 5.43646 1.71945 30.2529 -7.3453
lowerback 2.49223 -10.2198 -18.8667
upperback -1.75158 -14.1259 -5.29463
thorax -0.22291 -6.74395 4.44968
lowerneck -4.40817 23.1601 1.11092
upperneck 10.1411 33.0424 -13.4371
head 6.29036 15.2638 -1.50429
rclavicle -2.54444e-014 -6.36111e-015
rhumerus 30.5075 -27.3339 -55.7793
rradius 108.743
rwrist 4.12981
rhand -64.9336 27.3388
rfingers 7.12502
rthumb -36.8348 1.23181
lclavicle -2.54444e-014 -6.36111e-015
lhumerus 115.199 -40.1022 43.4319
lradius 39.6513
lwrist 3.9239
lhand -21.8942 -1.66535
lfingers 7.12502
lthumb -175.489 208.267
rfemur -27.0318 18.2884 26.6219
rtibia 34.2424
rfoot 2.26364 32.4539
rtoes 41.8203
lfemur 1.89552 17.4275 8.56957
ltibia 39.1686
lfoot 20.2406 10.7631
ltoes -27.7878
284
root -7.29094 17.7107 5.43066 1.79248 30.1768 -7.30401
lowerback 2.58142 -10.1858 -18.8176
upperback -1.74002 -14.1018 -5.31997
thorax -0.282161 -6.72914 4.42183
lowerneck -4.4744 23.1826 1.07618
upperneck 10.0619 33.0649 -13.4691
head 6.27728 15.2738 -1.50336
rclavicle -1.36764e-013 -3.18055e-014
rhumerus 30.6864 -27.6472 -55.5013
rradius 108.771
rwrist 4.112
rhand -64.9977 26.6096
rfingers 7.12502
rthumb -36.8955 0.518243
lclavicle -1.36764e-013 -3.18055e-014
lhumerus 115.417 -40.0032 43.5376
lradius 39.7162
lwrist 3.85247
lhand -21.8575 -1.62265
lfingers 7.12502
lthumb -175.454 208.309
rfemur -27.102 18.3168 26.5516
rtibia 34.2081
rfoot 2.47816 32.5391
rtoes 41.8876
lfemur 1.84579 17.6661 8.65145
ltibia 39.2661
lfoot 20.4079 10.092
ltoes -28.0845
285
root -7.29193 17.7122 5.42342 1.8734 30.1683 -7.33386
lowerback 2.64151 -10.1753 -18.7343
upperback -1.73974 -14.1023 -5.3043
thorax -0.329313 -6.72768 4.41246
lowerneck -4.52817 23.1926 1.03245
upperneck 9.98466 33.0711 -13.5022
head 6.26052 15.2766 -1.50566
rclavicle -9.22361e-014 -1.59028e-014
rhumerus 30.8796 -27.9534 -55.2503
rradius 108.751
rwrist 4.10938
rhand -65.0247 26.1362
rfingers 7.12502
rthumb -36.921 0.0513784
lclavicle -9.22361e-014 -1.59028e-014
lhumerus 115.604 -39.8128 43.5108
lradius 39.8211
lwrist 3.75162
lhand -22.2114 -1.62123
lfingers 7.12502
lthumb -175.795 208.317
rfemur -27.2204 18.2483 26.5421
rtibia 34.1683
rfoot 2.57222 32.6696
rtoes 41.7542
lfemur 1.69163 17.8295 8.74953
ltibia 39.3734
lfoot 20.5945 9.40655
ltoes -28.5095
286
root -7.29447 17.7146 5.4161 1.96122 30.2096 -7.33289
lowerback 2.7261 -10.1809 -18.7382
upperback -1.75198 -14.1325 -5.27627
thorax -0.375517 -6.73847 4.45865
lowerneck -4.58578 23.2267 1.05388
upperneck 10.1117 33.1383 -13.464
head 6.31204 15.2978 -1.47448
rclavicle 8.0309e-014 1.90833e-014
rhumerus 31.0577 -28.1741 -55.0123
rradius 108.68
rwrist 3.99612
rhand -65.0903 26.0955
rfingers 7.12502
rthumb -36.9831 0.0267048
lclavicle 8.0309e-014 1.90833e-014
lhumerus 115.806 -39.5366 43.3868
lradius 39.8612
lwrist 3.59991
lhand -22.6576 -1.53693
lfingers 7.12502
lthumb -176.226 208.409
rfemur -27.3174 18.1763 26.4952
rtibia 34.1149
rfoot 2.51297 32.7921
rtoes 41.5666
lfemur 1.49874 17.8927 8.79127
ltibia 39.4908
lfoot 20.6054 9.13023
ltoes -28.3461
287
root -7.29784 17.7169 5.41011 2.01302 30.2688 -7.34927
lowerback 2.82789 -10.1827 -18.7609
upperback -1.7464 -14.1597 -5.23757
thorax -0.405449 -6.7497 4.52561
lowerneck -4.64814 23.2311 1.12457
upperneck 10.2903 33.1801 -13.4655
head 6.39394 15.3007 -1.45444
rclavicle -8.34896e-014 -7.95139e-014
rhumerus 31.2244 -28.3458 -54.7487
rradius 108.569
rwrist 3.68417
rhand -65.2004 27.0961
rfingers 7.12502
rthumb -37.0872 1.05425
lclavicle -8.34896e-014 -7.95139e-014
lhumerus 116.007 -39.3133 43.368
lradius 39.8221
lwrist 3.63223
lhand -22.6561 -1.5805
lfingers 7.12502
lthumb -176.225 208.366
rfemur -27.3654 18.1481 26.4695
rtibia 34.0203
rfoot 2.46649 32.7887
rtoes 41.5194
lfemur 1.31763 17.9324 8.87288
ltibia 39.6355
lfoot 20.4844 9.27051
ltoes -27.173
288
root -7.2998 17.718 5.40121 2.04491 30.3404 -7.40104
lowerback 2.94184 -10.1729 -18.712
upperback -1.75481 -14.1754 -5.23426
thorax -0.484706 -6.75166 4.53032
lowerneck -4.49646 23.175 1.28649
upperneck 10.2804 33.1013 -13.5562
head 6.40204 15.2714 -1.51426
rclavicle 1.19271e-015 5.08889e-014
rhumerus 31.2716 -28.5219 -54.5416
rradius 108.439
rwrist 3.43324
rhand -65.2997 27.6905
rfingers 7.12502
rthumb -37.1811 1.67303
lclavicle 1.19271e-015 5.08889e-014
lhumerus 116.145 -39.212 43.3537
lradius 39.8381
lwrist 3.7766
lhand -22.4958 -1.4679
lfingers 7.12502
lthumb -176.07 208.476
rfemur -27.3991 18.0178 26.4882
rtibia 33.8646
rfoot 2.63413 32.7842
rtoes 41.54
lfemur 1.08773 18.0303 8.9907
ltibia 39.8294
lfoot 20.5372 8.87787
ltoes -27.4687
289
root -7.29999 17.7163 5.38634 2.08311 30.4239 -7.41838
lowerback 3.08131 -10.1421 -18.6515
upperback -1.74867 -14.1675 -5.26518
thorax -0.578561 -6.74157 4.50112
lowerneck -4.28401 23.1149 1.45659
upperneck 10.1513 32.9915 -13.6592
head 6.36278 15.2408 -1.59653
rclavicle -7.03698e-014 6.36111e-015
rhumerus 31.2678 -28.7328 -54.3948
rradius 108.297
rwrist 3.1742
rhand -65.3753 27.8849
rfingers 7.12502
rthumb -37.2526 1.88617
lclavicle -7.03698e-014 6.36111e-015
lhumerus 116.209 -39.2723 43.4346
lradius 39.8339
lwrist 3.69093
lhand -22.3613 -1.18431
lfingers 7.12502
lthumb -175.94 208.757
rfemur -27.4113 17.7989 26.4758
rtibia 33.6503
rfoot 2.79035 32.8774
rtoes 41.3264
lfemur 0.801523 18.2526 9.087
ltibia 40.0857
lfoot 20.7359 7.93693
ltoes -28.9614
290
root -7.30075 17.7123 5.37 2.11503 30.5386 -7.45169
lowerback 3.23992 -10.0852 -18.5971
upperback -1.70691 -14.1248 -5.27065
thorax -0.643124 -6.71882 4.50277
lowerneck -4.34487 23.0558 1.62214
upperneck 10.2407 32.9369 -13.7445
head 6.43757 15.2031 -1.61961
rclavicle -8.74653e-015 -2.22639e-014
rhumerus 31.2799 -29.0197 -54.1438
rradius 108.154
rwrist 2.79505
rhand -65.4439 27.6493
rfingers 7.12502
rthumb -37.3175 1.66756
lclavicle -8.74653e-015 -2.22639e-014
lhumerus 116.302 -39.4344 43.632
lradius 39.699
lwrist 3.37205
lhand -22.2593 -1.08946
lfingers 7.12502
lthumb -175.842 208.85
rfemur -27.432 17.5839 26.4896
rtibia 33.4281
rfoot 2.59867 32.8719
rtoes 40.687
lfemur 0.492393 18.5395 9.21423
ltibia 40.3731
lfoot 20.9171 6.89255
ltoes -30.2703
291
root -7.30299 17.7115 5.3532 2.15252 30.7117 -7.56538
lowerback 3.38133 -10.0058 -18.4698
upperback -1.76148 -14.0607 -5.31444
thorax -0.833791 -6.67146 4.44361
lowerneck -4.00997 22.9128 2.14859
upperneck 10.4023 32.77 -13.9215
head 6.53554 15.1338 -1.74632
rclavicle 3.22031e-014 4.13472e-014
rhumerus 30.8644 -29.2704 -53.7142
rradius 108.102
rwrist 2.37768
rhand -65.5392 26.3164
rfingers 7.12502
rthumb -37.4076 0.358453
lclavicle 3.22031e-014 4.13472e-014
lhumerus 116.408 -39.7987 43.7256
lradius 39.5089
lwrist 3.13196
lhand -22.3753 -1.23122
lfingers 7.12502
lthumb -175.954 208.71
rfemur -27.5202 17.3699 26.5482
rtibia 33.2423
rfoot 2.37544 32.87
rtoes 39.8942
lfemur 0.127198 18.7358 9.3822
ltibia 40.6377
lfoot 20.9195 6.61994
ltoes -30.3225
292
root -7.30476 17.7192 5.33371 2.15001 30.8973 -7.76083
lowerback 3.54932 -9.96093 -18.3017
upperback -1.8136 -14.0464 -5.29468
thorax -1.01871 -6.65086 4.42995
lowerneck -3.62664 22.8137 2.46929
upperneck 10.3577 32.6247 -14.0703
head 6.52367 15.0912 -1.87068
rclavicle 1.61413e-013 6.36111e-015
rhumerus 30.5768 -29.3635 -53.4567
rradius 108.053
rwrist 1.92305
rhand -65.6371 25.8949
rfingers 7.12502
rthumb -37.5 -0.0386717
lclavicle 1.61413e-013 6.36111e-015
lhumerus 116.519 -39.8862 43.634
lradius 39.3713
lwrist 3.09245
lhand -22.6439 -1.22279
lfingers 7.12502
lthumb -176.213 208.723
rfemur -27.6128 17.1523 26.6407
rtibia 33.0887
rfoot 2.21959 33.0012
rtoes 39.3944
lfemur -0.22043 18.8426 9.58132
ltibia 40.847
lfoot 20.7486 7.23196
ltoes -28.8706
